<?xml version="1.0" encoding="UTF-8" standalone="no"?>
<svg width="24px" height="24px" viewBox="0 0 24 24" version="1.1" xmlns="http://www.w3.org/2000/svg" xmlns:xlink="http://www.w3.org/1999/xlink" xmlns:sketch="http://www.bohemiancoding.com/sketch/ns">
    <!-- Generator: Sketch 3.4.3 (16044) - http://www.bohemiancoding.com/sketch -->
    <title>increase</title>
    <desc>Created with Sketch.</desc>
    <defs></defs>
    <g id="UI" stroke="none" stroke-width="1" fill="none" fill-rule="evenodd" sketch:type="MSPage">
        <path d="M17,13 L13,13 L13,17 C13,17.553 12.552,18 12,18 C11.448,18 11,17.553 11,17 L11,13 L7,13 C6.448,13 6,12.553 6,12 C6,11.447 6.448,11 7,11 L11,11 L11,7 C11,6.447 11.448,6 12,6 C12.552,6 13,6.447 13,7 L13,11 L17,11 C17.552,11 18,11.447 18,12 C18,12.553 17.552,13 17,13 M12,0 C5.383,0 0,5.383 0,12 C0,18.617 5.383,24 12,24 C18.617,24 24,18.617 24,12 C24,5.383 18.617,0 12,0" id="increase" fill="#4990E2" sketch:type="MSShapeGroup"></path>
    </g>
</svg>