<?xml version="1.0" encoding="UTF-8" standalone="no"?>
<svg width="25px" height="25px" viewBox="0 0 25 25" version="1.1" xmlns="http://www.w3.org/2000/svg" xmlns:xlink="http://www.w3.org/1999/xlink" xmlns:sketch="http://www.bohemiancoding.com/sketch/ns">
    <!-- Generator: Sketch 3.4.3 (16044) - http://www.bohemiancoding.com/sketch -->
    <title>Oval 1 + Fill 3957</title>
    <desc>Created with Sketch.</desc>
    <defs></defs>
    <g id="Elements" stroke="none" stroke-width="1" fill="none" fill-rule="evenodd" sketch:type="MSPage">
        <g id="Animation" sketch:type="MSArtboardGroup" transform="translate(-961.000000, -824.000000)">
            <g id="Oval-1-+-Fill-3957-+-Next-+-Line-Copy-3-+-Line-Copy-4-+-I-want-to-animate-al-+-Rectangle-8" sketch:type="MSLayerGroup" transform="translate(901.000000, 770.000000)">
                <g id="Oval-1-+-Fill-3957-+-Next-+-Line-Copy-3-+-Line-Copy-4" transform="translate(55.000000, 39.000000)" sketch:type="MSShapeGroup">
                    <g id="Oval-1-+-Fill-3957-+-Next" transform="translate(5.000000, 15.000000)">
                        <g id="Oval-1-+-Fill-3957">
                            <path d="M12.47,25 C19.3569908,25 24.94,19.4035594 24.94,12.5 C24.94,5.59644063 19.3569908,0 12.47,0 C5.58300917,0 0,5.59644063 0,12.5 C0,19.4035594 5.58300917,25 12.47,25 Z" id="Oval-1" fill="#4990E2"></path>
                            <path d="M10.406625,16.9931932 C10.4856541,17.0724124 10.5894052,17.1122252 10.6931563,17.1122252 C10.7969074,17.1122252 10.9006585,17.0724124 10.9796877,16.9931932 L18.2746868,9.68064395 C18.4331504,9.52179913 18.4331504,9.2650474 18.2746868,9.10620258 C18.1162232,8.94735776 17.8600877,8.94735776 17.7016241,9.10620258 L10.6931563,16.1315311 L6.9269104,12.3562245 C6.76844681,12.1973796 6.51231129,12.1973796 6.35384769,12.3562245 C6.1953841,12.5150693 6.1953841,12.771821 6.35384769,12.9306658 L10.406625,16.9931932 Z" id="Fill-3957" stroke="#FFFFFF"></path>
                        </g>
                    </g>
                </g>
            </g>
        </g>
    </g>
</svg>