<?xml version="1.0" encoding="UTF-8" standalone="no"?>
<svg width="18px" height="20px" viewBox="0 0 18 20" version="1.1" xmlns="http://www.w3.org/2000/svg" xmlns:xlink="http://www.w3.org/1999/xlink" xmlns:sketch="http://www.bohemiancoding.com/sketch/ns">
    <!-- Generator: Sketch 3.4.3 (16044) - http://www.bohemiancoding.com/sketch -->
    <title>pause</title>
    <desc>Created with Sketch.</desc>
    <defs></defs>
    <g id="Media" stroke="none" stroke-width="1" fill="none" fill-rule="evenodd" sketch:type="MSPage">
        <g id="pause" sketch:type="MSLayerGroup" fill="#444444">
            <path d="M6,20 C6.553,20 7,19.553 7,19 L7,1 C7,0.447 6.553,0 6,0 L1,0 C0.447,0 0,0.447 0,1 L0,19 C0,19.553 0.447,20 1,20 L6,20 Z" id="Fill-2138" sketch:type="MSShapeGroup"></path>
            <path d="M17,20 C17.553,20 18,19.553 18,19 L18,1 C18,0.447 17.553,0 17,0 L12,0 C11.447,0 11,0.447 11,1 L11,19 C11,19.553 11.447,20 12,20 L17,20 Z" id="Fill-2139" sketch:type="MSShapeGroup"></path>
        </g>
    </g>
</svg>